<?xml version="1.0" encoding="UTF-8"?>
<svg id="Capa_2" data-name="Capa 2" xmlns="http://www.w3.org/2000/svg" xmlns:xlink="http://www.w3.org/1999/xlink" viewBox="0 0 205.13 175.42">
  <defs>
    <style>
      .cls-1, .cls-2 {
        fill: none;
      }

      .cls-3 {
        fill: #17b7b1;
      }

      .cls-2 {
        stroke: #fff;
        stroke-miterlimit: 10;
      }

      .cls-4 {
        fill: #4abc9b;
      }

      .cls-5 {
        fill: #063f76;
      }

      .cls-6 {
        fill: #fff;
      }

      .cls-7 {
        fill: #5d5d5b;
      }

      .cls-8 {
        fill: url(#Degradado_sin_nombre_59);
      }

      .cls-9 {
        fill: url(#Degradado_sin_nombre_25);
      }

      .cls-10 {
        fill: #159fa9;
      }

      .cls-11 {
        fill: #00b894;
      }
    </style>
    <radialGradient id="Degradado_sin_nombre_59" data-name="Degradado sin nombre 59" cx="104.77" cy="61.14" fx="104.77" fy="61.14" r="51.13" gradientTransform="translate(-3.18 -9.24) rotate(-1.93)" gradientUnits="userSpaceOnUse">
      <stop offset="0" stop-color="#4abc9b"/>
      <stop offset=".28" stop-color="#40bb9f"/>
      <stop offset=".75" stop-color="#27b8a9"/>
      <stop offset="1" stop-color="#17b7b1"/>
    </radialGradient>
    <linearGradient id="Degradado_sin_nombre_25" data-name="Degradado sin nombre 25" x1="67.07" y1="70.89" x2="157.15" y2="70.89" gradientUnits="userSpaceOnUse">
      <stop offset="0" stop-color="#4abc9b"/>
      <stop offset=".28" stop-color="#40bb9f"/>
      <stop offset=".75" stop-color="#27b8a9"/>
      <stop offset="1" stop-color="#17b7b1"/>
    </linearGradient>
  </defs>
  <g id="Capa_1-2" data-name="Capa 1">
    <g>
      <g>
        <circle class="cls-3" cx="150.43" cy="1.48" r="1.48"/>
        <circle class="cls-10" cx="165.82" cy="13.04" r="1.48"/>
        <circle class="cls-10" cx="158.74" cy="2.65" r="1.78"/>
        <circle class="cls-10" cx="163.48" cy="6.74" r="1.78"/>
        <circle class="cls-3" cx="140.54" cy="2.8" r="2.16"/>
        <path class="cls-8" d="M110.92,71.47c36.88-23.36,45.62-51.35,45.62-51.35l6.15,2.33-4.39-16.42-12.09,11.79,5.67,1.51c-18.48,43.37-65.13,58.74-65.13,58.74,0,0-15.18,7.84-30.94,4.35-14.57-3.23-4.33-20.78-4.33-20.78,0,0-15.99,19.08.85,27.27,0,0,14.23,4.73,33.69-4.16,19.2-8.77,24.46-12.92,24.46-12.92l.44-.35Z"/>
        <path class="cls-1" d="M104.37,99.38c25.02,0,45.31-20.29,45.31-45.31,0,0,0,0,0,0,0,25.02-20.29,45.31-45.31,45.31-10.76,0-20.64-3.76-28.41-10.03,0,0,0,0,0,0,7.77,6.27,17.65,10.03,28.41,10.03Z"/>
        <path class="cls-5" d="M58.77,54.41s0,0,0,0h0c0-25.03,20.29-45.31,45.31-45.31,16.91,0,31.65,9.26,39.44,22.99.09.16.17.32.25.48,1.45-2.39,2.84-4.9,4.16-7.53C138.46,10.93,122.36,1.63,104.08,1.63c-29.15,0-52.78,23.63-52.78,52.78,0,9.53,2.61,18.93,7.03,26.65,2-.03,4.88.09,8.56-.47-4.97-7.27-8.12-16.71-8.12-26.18Z"/>
        <path class="cls-9" d="M152.79,33.94c-1.61,2.66-3.19,5.82-5.07,8.28,0,0,.21.47.21.47,1.12,3.93,1.74,8.08,1.74,12.37,0,0,0,0,0,0,0,25.02-20.29,45.31-45.31,45.31-10.76,0-20.04-3.29-27.81-9.56-3.16,1.15-7.26,1.16-9.48,1.87,9.48,9.11,23.1,15.15,37.3,15.15,29.15,0,52.78-23.62,52.78-52.77,0-7.1-1.81-14.94-4.36-21.12Z"/>
        <path class="cls-5" d="M81.81,89.42c6.47,4.26,14.22,6.74,22.55,6.74,22.7,0,41.1-18.4,41.1-41.1,0-3.16-.37-6.23-1.05-9.19-23.31,29.36-53.67,40.58-62.61,43.55Z"/>
        <path class="cls-5" d="M141.42,37.67c-6.3-14.61-20.4-23.86-37.32-23.86-22.7,0-41.1,18.4-41.1,41.1,0,10.56,3.98,20.18,10.52,27.46,11.72-2.71,44.69-12.78,67.9-44.7Z"/>
        <path class="cls-2" d="M113.82,58.64c0,1.04-.84,1.88-1.88,1.88s-1.88-.84-1.88-1.88c0-.66.34-1.24.85-1.58.3-.19.65-.31,1.03-.31,1.04,0,1.88.84,1.88,1.88Z"/>
        <path class="cls-2" d="M109.82,86.32c0,1.27-1.03,2.3-2.3,2.3s-2.3-1.03-2.3-2.3c0-.81.41-1.52,1.04-1.93.36-.24.8-.38,1.26-.38,1.27,0,2.3,1.03,2.3,2.3Z"/>
        <path class="cls-2" d="M120.17,84.02c0,1.27-1.03,2.3-2.3,2.3s-2.3-1.03-2.3-2.3c0-.81.41-1.52,1.04-1.93.36-.24.8-.38,1.26-.38,1.27,0,2.3,1.03,2.3,2.3Z"/>
        <path class="cls-2" d="M99.59,84.19c0,1.27-1.03,2.3-2.3,2.3s-2.3-1.03-2.3-2.3c0-.81.41-1.52,1.04-1.93.36-.24.8-.38,1.26-.38,1.27,0,2.3,1.03,2.3,2.3Z"/>
        <path class="cls-2" d="M99.26,24.55c0,1.04-.84,1.88-1.88,1.88s-1.88-.84-1.88-1.88c0-.66.34-1.24.85-1.58.3-.19.65-.31,1.03-.31,1.04,0,1.88.84,1.88,1.88Z"/>
        <path class="cls-2" d="M109.36,22.39c0,1.04-.84,1.88-1.88,1.88s-1.88-.84-1.88-1.88c0-.66.34-1.24.85-1.58.3-.19.65-.31,1.03-.31,1.04,0,1.88.84,1.88,1.88Z"/>
        <path class="cls-2" d="M119.59,24.27c0,1.04-.84,1.88-1.88,1.88s-1.88-.84-1.88-1.88c0-.66.34-1.24.85-1.58.3-.19.65-.31,1.03-.31,1.04,0,1.88.84,1.88,1.88Z"/>
        <polyline class="cls-2" points="111.2 56.87 102.5 48.34 102.5 35.57 97.38 30.32 97.38 26.54"/>
        <line class="cls-2" x1="110.2" y1="33.1" x2="117.05" y2="26.06"/>
        <line class="cls-2" x1="107.48" y1="24.27" x2="107.48" y2="33.1"/>
        <line class="cls-2" x1="107.52" y1="84.02" x2="107.52" y2="81.06"/>
        <line class="cls-2" x1="116.99" y1="82.89" x2="112.98" y2="78.69"/>
        <circle class="cls-4" cx="46.91" cy="56.8" r="1.19"/>
        <circle class="cls-4" cx="44.16" cy="61.1" r="1.19"/>
        <circle class="cls-4" cx="41.79" cy="65.4" r="1.19"/>
        <circle class="cls-4" cx="39.98" cy="69.71" r="1.19"/>
        <circle class="cls-4" cx="38.8" cy="74.69" r="1.19"/>
        <path class="cls-6" d="M93.51,36.3h-5.16l-14.58,32.58h7.67l9.7-21.7,4.19,9.28-5.51-.07-2.72,6.42h11.02l2.58,6.07h4.47l2.65-1.74-14.3-30.84ZM104.24,66.64h-2.08l-2.6-5.79h-9.48l.98-2.21h7.54s-7.54-16.63-7.54-16.63l-10.88,24.63h-3.21l12.59-28.19h2.82l12.77,27.56-.92.63Z"/>
        <polygon class="cls-6" points="118.48 59.24 116.29 60.61 116.29 43.25 104.77 43.25 104.77 36.62 134.01 36.62 134.01 43.04 123.05 43.04 123.05 55.67 120.83 57.27 120.83 40.94 132.13 40.94 132.13 38.66 106.83 38.66 106.83 41.03 118.27 41.03 118.48 59.24"/>
      </g>
      <g>
        <g>
          <path class="cls-11" d="M154.86,127.09l-6.37.09v-2.71h15.25v2.68h-6.4v16.6s-2.48,0-2.48,0v-16.66Z"/>
          <path class="cls-11" d="M169.72,143.75c-2.11,0-3.73-.65-4.87-1.94-1.14-1.3-1.71-3.09-1.71-5.37,0-1.62.28-2.99.85-4.1.57-1.12,1.35-1.96,2.34-2.54.99-.58,2.12-.86,3.4-.86,1.44,0,2.61.29,3.51.88.9.58,1.57,1.39,2,2.42.43,1.03.65,2.2.65,3.51v1.19h-10.37c.07,1.51.46,2.71,1.17,3.6.71.89,1.72,1.34,3.04,1.34,1.17,0,2.03-.22,2.58-.66.55-.44.91-1.04,1.09-1.8h2.27c-.23,1.33-.83,2.39-1.8,3.17-.96.78-2.34,1.17-4.14,1.17ZM166.1,132.94c-.29.68-.47,1.42-.54,2.23h7.94c-.07-1.42-.37-2.51-.9-3.28-.53-.76-1.5-1.15-2.9-1.15-.95,0-1.72.2-2.29.59-.58.4-1.01.93-1.3,1.61Z"/>
          <path class="cls-11" d="M180.2,141.79c-1.12-1.33-1.67-3.12-1.67-5.37,0-1.49.27-2.8.81-3.91s1.31-1.99,2.31-2.61c1-.62,2.19-.93,3.58-.93,1.66,0,2.95.41,3.89,1.23.94.82,1.52,1.95,1.76,3.39l-2.35.43c-.18-.9-.51-1.64-1-2.23-.49-.58-1.28-.88-2.38-.88-.99,0-1.79.24-2.39.73-.6.49-1.04,1.14-1.32,1.96-.28.82-.42,1.74-.42,2.77s.13,1.93.39,2.77.69,1.5,1.3,1.98c.6.49,1.41.73,2.42.73,1.13,0,1.97-.29,2.52-.86.55-.58.9-1.36,1.07-2.35h2.38c-.23,1.58-.85,2.84-1.84,3.77-.99.93-2.39,1.39-4.19,1.39-2.12,0-3.74-.67-4.86-2Z"/>
          <path class="cls-11" d="M193.25,124.47h2.35v7.4c.72-.9,1.48-1.54,2.29-1.93.81-.39,1.67-.58,2.56-.58,1.58,0,2.76.44,3.52,1.31.77.87,1.15,2.14,1.15,3.79v9.29h-2.35v-8.83c0-1.3-.24-2.21-.72-2.74-.48-.53-1.19-.8-2.15-.8-.5,0-1.02.09-1.54.27-.52.18-.99.47-1.4.86-.45.4-.79.82-1.03,1.26-.23.44-.35,1.01-.35,1.71v8.26h-2.35v-19.28Z"/>
        </g>
        <g>
          <path class="cls-5" d="M33.34,143.32h-2.32v-2.16c-.67.9-1.4,1.56-2.2,1.97-.8.41-1.66.62-2.58.62-1.58,0-2.73-.43-3.44-1.3-.71-.86-1.07-2.14-1.07-3.83v-9.26h2.35v8.8c0,1.3.22,2.21.65,2.75s1.12.81,2.05.81c1.06,0,2.01-.38,2.83-1.13.45-.4.79-.81,1.03-1.26.23-.44.35-1.01.35-1.71v-8.26h2.35v13.96Z"/>
          <path class="cls-5" d="M40.03,139.54c0,.68.15,1.23.46,1.65s.77.62,1.4.62c.4,0,.75-.03,1.05-.09s.58-.13.81-.2l.41,1.81c-.36.13-.75.23-1.17.31s-.92.12-1.5.12c-1.04,0-1.84-.21-2.39-.62-.55-.41-.92-.99-1.12-1.71-.2-.73-.3-1.56-.3-2.5v-6.38l-2.16.02v-2.23h2.16v-4.07h2.35v4.07h3.7v2.23s-3.7,0-3.7,0v6.98Z"/>
          <path class="cls-5" d="M102.86,139.54c0,.68.15,1.23.46,1.65s.77.62,1.4.62c.4,0,.75-.03,1.05-.09s.58-.13.81-.2l.41,1.81c-.36.13-.75.23-1.17.31s-.92.12-1.5.12c-1.04,0-1.84-.21-2.39-.62-.55-.41-.92-.99-1.12-1.71-.2-.73-.3-1.56-.3-2.5v-6.38l-2.16.02v-2.23h2.16v-4.07h2.35v4.07h3.7v2.23s-3.7,0-3.7,0v6.98Z"/>
          <path class="cls-5" d="M47.13,141.78c-1.18-1.31-1.77-3.11-1.77-5.4,0-1.53.28-2.85.84-3.96.56-1.11,1.35-1.97,2.38-2.58,1.03-.61,2.22-.92,3.59-.92s2.61.3,3.6.89,1.77,1.44,2.31,2.54.81,2.4.81,3.92-.27,2.85-.82,3.97c-.55,1.12-1.33,1.98-2.35,2.59-1.02.61-2.23.92-3.63.92-2.12,0-3.78-.66-4.95-1.97ZM54.56,141.11c.63-.47,1.09-1.12,1.39-1.96.3-.84.45-1.79.45-2.85,0-1.6-.34-2.91-1.01-3.92-.67-1.01-1.77-1.51-3.28-1.51s-2.58.51-3.25,1.53c-.68,1.02-1.01,2.33-1.01,3.93s.33,2.92,1,3.94c.67,1.03,1.75,1.54,3.27,1.54,1.01,0,1.83-.23,2.46-.7Z"/>
          <path class="cls-5" d="M61.76,129.79h2.32v2.13c.63-.86,1.32-1.51,2.08-1.93.76-.42,1.53-.63,2.32-.63,1.04,0,1.89.22,2.52.67.64.45,1.11,1.1,1.42,1.94,1.28-1.75,2.86-2.62,4.75-2.62,1.37,0,2.43.37,3.17,1.12.75.75,1.12,1.95,1.12,3.6v9.67h-2.35v-9.13c0-1.28-.21-2.14-.63-2.58-.42-.44-1.03-.66-1.82-.66-.4,0-.82.07-1.28.22-.46.14-.9.4-1.34.76-.36.31-.66.67-.89,1.11-.23.43-.35.93-.35,1.49v8.8h-2.35v-9.1c0-1.22-.21-2.08-.63-2.55-.42-.48-1.03-.72-1.82-.72-.92,0-1.78.38-2.59,1.13-.31.29-.6.66-.88,1.11-.28.45-.42,1.05-.42,1.81v8.32h-2.35v-13.96Z"/>
          <path class="cls-5" d="M95.83,143.37h-2.27v-1.92c-.5.61-1.14,1.14-1.92,1.58-.77.44-1.74.66-2.89.66-1.4,0-2.55-.35-3.44-1.04-.89-.69-1.34-1.74-1.34-3.15,0-.95.2-1.73.61-2.32.41-.59.95-1.06,1.62-1.4s1.44-.58,2.29-.73c.85-.14,1.72-.23,2.61-.27l2.4-.08v-.54c0-1.19-.25-2.04-.76-2.57-.5-.52-1.32-.78-2.46-.78s-1.94.18-2.46.55c-.52.37-.86.88-1.03,1.53l-2.13-.24c.25-1.28.85-2.21,1.81-2.79.95-.58,2.25-.88,3.89-.88,2.02,0,3.43.47,4.24,1.4.81.94,1.21,2.24,1.21,3.92v9.07ZM93.51,136.38l-2.24.08c-1.26.04-2.25.18-2.96.42-.71.24-1.21.58-1.5,1-.29.42-.43.95-.43,1.58,0,.7.21,1.26.63,1.69.42.42,1.12.63,2.09.63,1.31,0,2.38-.32,3.19-.97.81-.65,1.22-1.6,1.22-2.86v-1.57Z"/>
          <path class="cls-5" d="M109.39,124.47h2.4v2.73h-2.4v-2.73ZM109.45,129.79h2.35v13.96h-2.35v-13.96Z"/>
          <path class="cls-5" d="M123.1,131.63h-7.96v-1.89h10.88v1.75l-8.13,10.31h8.53l-.3,1.89h-11.15v-1.75l8.13-10.31Z"/>
          <path class="cls-5" d="M139.81,143.37h-2.27v-1.92c-.5.61-1.14,1.14-1.92,1.58-.77.44-1.74.66-2.89.66-1.4,0-2.55-.35-3.44-1.04-.89-.69-1.34-1.74-1.34-3.15,0-.95.2-1.73.61-2.32.41-.59.95-1.06,1.62-1.4s1.44-.58,2.29-.73c.85-.14,1.72-.23,2.61-.27l2.4-.08v-.54c0-1.19-.25-2.04-.76-2.57-.5-.52-1.32-.78-2.46-.78s-1.94.18-2.46.55c-.52.37-.86.88-1.03,1.53l-2.13-.24c.25-1.28.85-2.21,1.81-2.79s2.25-.88,3.89-.88c2.02,0,3.43.47,4.24,1.4.81.94,1.22,2.24,1.22,3.92v9.07ZM137.48,136.38l-2.24.08c-1.26.04-2.25.18-2.96.42-.71.24-1.21.58-1.5,1s-.43.95-.43,1.58c0,.7.21,1.26.63,1.69s1.12.63,2.09.63c1.31,0,2.38-.32,3.19-.97.81-.65,1.21-1.6,1.21-2.86v-1.57Z"/>
          <path class="cls-5" d="M10.05,124.47h2.62l7.48,19.28h-2.7l-2.03-5.37H7.16l-2.02,5.37h-2.59l7.51-19.28ZM14.67,136.22l-3.4-8.91-3.35,8.91h6.75Z"/>
        </g>
      </g>
      <path class="cls-7" d="M130.48,159.83h1.01l-.57,2.38h-.77l.33-2.38Z"/>
      <g>
        <path class="cls-7" d="M17.52,154.98c.31-.62.73-1.08,1.25-1.41.53-.32,1.13-.48,1.79-.48s1.18.11,1.59.32c.41.22.74.52.98.91s.41.84.52,1.34l-.99.16c-.09-.39-.21-.72-.37-1-.16-.28-.38-.49-.65-.64-.27-.15-.63-.23-1.07-.23-.52,0-.96.14-1.33.41s-.65.65-.84,1.14c-.19.49-.29,1.05-.29,1.7s.1,1.21.29,1.7c.19.49.47.87.84,1.14.37.27.82.41,1.34.41.48,0,.87-.08,1.16-.24s.51-.38.67-.67c.15-.29.26-.62.32-.99h1.05c-.06.53-.21,1-.47,1.42s-.6.75-1.06,1c-.45.24-1.01.36-1.68.36-.72,0-1.34-.16-1.86-.49-.52-.33-.93-.8-1.22-1.41s-.43-1.35-.43-2.22.15-1.63.46-2.24Z"/>
        <path class="cls-7" d="M25.42,160.51c-.48-.54-.72-1.27-.72-2.2,0-.62.11-1.16.34-1.61.23-.45.55-.8.97-1.05.42-.25.91-.37,1.46-.37s1.06.12,1.47.36c.41.24.72.59.94,1.03.22.45.33.98.33,1.59s-.11,1.16-.34,1.62-.54.81-.96,1.06c-.41.25-.91.37-1.48.37-.87,0-1.54-.27-2.02-.8ZM28.45,160.24c.26-.19.45-.46.57-.8.12-.34.18-.73.18-1.16,0-.65-.14-1.18-.41-1.59-.28-.41-.72-.62-1.34-.62s-1.05.21-1.33.62-.41.95-.41,1.6.14,1.19.41,1.61c.27.42.71.63,1.33.63.41,0,.74-.09,1-.29Z"/>
        <path class="cls-7" d="M31.03,155.45h.95v.87c.29-.37.61-.64.94-.8.33-.16.68-.24,1.05-.24.65,0,1.12.18,1.44.53.31.36.47.87.47,1.54v3.96h-.96v-3.77c0-.53-.1-.9-.29-1.12-.19-.22-.49-.32-.87-.32-.21,0-.41.04-.63.11-.21.07-.4.19-.57.35-.18.16-.32.33-.42.51s-.14.41-.14.7v3.54h-.96v-5.86Z"/>
        <path class="cls-7" d="M39.39,161.31c-.86,0-1.52-.26-1.99-.79-.47-.53-.7-1.26-.7-2.19,0-.66.12-1.22.35-1.67.23-.46.55-.8.95-1.03.4-.24.87-.35,1.39-.35.59,0,1.06.12,1.43.36s.64.57.81.98c.18.42.26.9.26,1.43v.48h-4.22c.03.62.19,1.11.48,1.47.29.36.7.54,1.24.54.48,0,.83-.09,1.05-.27.22-.18.37-.42.45-.73h.92c-.1.54-.34.97-.73,1.29-.39.32-.96.48-1.69.48ZM37.92,156.91c-.12.28-.19.58-.22.91h3.23c-.03-.58-.15-1.02-.37-1.34s-.61-.47-1.18-.47c-.39,0-.7.08-.94.24-.23.16-.41.38-.53.65Z"/>
        <path class="cls-7" d="M43.4,160.48c-.45-.54-.68-1.27-.68-2.19,0-.61.11-1.14.33-1.59.22-.46.53-.81.94-1.06.41-.25.89-.38,1.46-.38.67,0,1.2.17,1.58.5s.62.79.72,1.38l-.96.18c-.07-.37-.21-.67-.41-.91-.2-.24-.52-.36-.97-.36-.4,0-.73.1-.97.3-.25.2-.43.46-.54.8s-.17.71-.17,1.13.05.79.16,1.13c.11.34.28.61.53.81s.57.3.98.3c.46,0,.8-.12,1.03-.35.22-.23.37-.55.43-.96h.97c-.1.65-.34,1.16-.75,1.53s-.97.57-1.71.57c-.87,0-1.53-.27-1.98-.81Z"/>
        <path class="cls-7" d="M49.82,159.54c0,.28.06.5.19.67s.32.25.57.25c.16,0,.3-.01.43-.04.12-.03.23-.05.33-.08l.17.74c-.15.05-.31.09-.48.13s-.38.05-.61.05c-.43,0-.75-.08-.97-.25-.22-.17-.38-.4-.46-.7-.08-.3-.12-.64-.12-1.02v-3.08h-.88v-.76h.88v-1.55h.96v1.55h1.51v.76h-1.51v3.33Z"/>
        <path class="cls-7" d="M56.74,161.07h-.92v-.78c-.21.25-.47.46-.78.64-.32.18-.71.27-1.18.27-.57,0-1.04-.14-1.4-.42-.36-.28-.54-.71-.54-1.28,0-.39.08-.7.25-.95.17-.24.38-.43.66-.57.27-.14.59-.24.93-.3.35-.06.7-.1,1.06-.11l.98-.03v-.22c0-.48-.1-.83-.31-1.04-.21-.21-.54-.32-1-.32s-.79.08-1,.23c-.21.15-.35.36-.42.62l-.87-.1c.1-.52.35-.9.74-1.14s.92-.36,1.58-.36c.82,0,1.4.19,1.73.57.33.38.5.91.5,1.59v3.7ZM55.8,158.22l-.91.03c-.51.02-.92.07-1.2.17-.29.1-.49.23-.61.41-.12.17-.18.39-.18.64,0,.29.09.51.26.69.17.17.46.26.85.26.54,0,.97-.13,1.3-.4.33-.26.49-.65.49-1.17v-.64Z"/>
        <path class="cls-7" d="M57.66,155.45h.95v.87c.26-.35.54-.61.85-.79.31-.17.62-.26.95-.26.43,0,.77.09,1.03.28s.45.45.58.79c.52-.71,1.17-1.07,1.94-1.07.56,0,.99.15,1.29.46.3.3.46.79.46,1.47v4.11h-.96v-3.89c0-.52-.09-.87-.26-1.05s-.42-.27-.74-.27c-.16,0-.34.03-.52.09s-.37.16-.54.31c-.15.12-.27.27-.36.45-.1.18-.14.38-.14.61v3.76h-.96v-3.88c0-.5-.09-.84-.26-1.04s-.42-.29-.74-.29c-.37,0-.73.15-1.06.46-.12.12-.24.27-.36.45s-.17.43-.17.74v3.56h-.96v-5.86Z"/>
        <path class="cls-7" d="M67.14,160.42c-.48-.54-.72-1.27-.72-2.2,0-.62.11-1.16.34-1.61.23-.45.55-.8.97-1.05.42-.25.91-.37,1.46-.37s1.06.12,1.47.36c.41.24.72.59.94,1.03.22.45.33.98.33,1.59s-.11,1.16-.34,1.62-.54.81-.96,1.06c-.41.25-.91.37-1.48.37-.87,0-1.54-.27-2.02-.8ZM70.17,160.15c.26-.19.45-.46.57-.8.12-.34.18-.73.18-1.16,0-.65-.14-1.18-.41-1.59-.28-.41-.72-.62-1.34-.62s-1.05.21-1.33.62-.41.95-.41,1.6.14,1.19.41,1.61c.27.42.71.63,1.33.63.41,0,.74-.09,1-.29Z"/>
        <path class="cls-7" d="M76.47,160.75c-.38.32-.95.48-1.72.48-.46,0-.87-.06-1.24-.18s-.68-.31-.91-.58-.36-.63-.39-1.08h.92c.07.4.23.67.5.83.27.16.63.24,1.09.24s.83-.08,1.03-.25.3-.38.3-.65c0-.23-.06-.42-.19-.58-.12-.16-.4-.27-.82-.34l-.73-.11c-.64-.1-1.13-.27-1.46-.51-.34-.24-.51-.62-.51-1.15,0-.35.1-.65.3-.9.2-.25.47-.44.81-.57.34-.13.72-.2,1.15-.2.55,0,.98.07,1.3.21.32.14.55.33.7.56.15.23.26.5.33.78l-.87.14c-.1-.31-.25-.54-.44-.7-.19-.16-.52-.24-.99-.24-.53,0-.89.09-1.08.26s-.29.37-.29.58c0,.23.07.42.21.56s.43.24.87.31l.83.13c.67.11,1.15.3,1.44.57.29.27.43.67.43,1.19,0,.48-.19.88-.57,1.19Z"/>
        <path class="cls-7" d="M82.08,159.58c0,.28.06.5.19.67s.32.25.57.25c.16,0,.3-.01.43-.04.12-.03.23-.05.33-.08l.17.74c-.15.05-.31.09-.48.13s-.38.05-.61.05c-.43,0-.75-.08-.97-.25-.22-.17-.38-.4-.46-.7-.08-.3-.12-.64-.12-1.02v-3.08h-.88v-.76h.88v-1.55h.96v1.55h1.51v.76h-1.51v3.33Z"/>
        <path class="cls-7" d="M88.94,161.31h-.95v-1.06c-.27.37-.57.63-.9.8s-.68.25-1.05.25c-.65,0-1.11-.18-1.4-.53-.29-.35-.43-.87-.43-1.56v-3.77h.96v3.59c0,.53.09.9.26,1.12.18.22.45.33.84.33.43,0,.82-.15,1.15-.46.18-.16.32-.33.42-.51s.14-.41.14-.7v-3.37h.96v5.86Z"/>
        <path class="cls-7" d="M93.97,160.84c-.38.32-.95.48-1.72.48-.46,0-.87-.06-1.24-.18s-.68-.31-.91-.58-.36-.63-.39-1.08h.92c.07.4.23.67.5.83.27.16.63.24,1.09.24s.83-.08,1.03-.25.3-.38.3-.65c0-.23-.06-.42-.19-.58-.12-.16-.4-.27-.82-.34l-.73-.11c-.64-.1-1.13-.27-1.46-.51-.34-.24-.51-.62-.51-1.15,0-.35.1-.65.3-.9.2-.25.47-.44.81-.57.34-.13.72-.2,1.15-.2.55,0,.98.07,1.3.21.32.14.55.33.7.56.15.23.26.5.33.78l-.87.14c-.1-.31-.25-.54-.44-.7-.19-.16-.52-.24-.99-.24-.53,0-.89.09-1.08.26s-.29.37-.29.58c0,.23.07.42.21.56s.43.24.87.31l.83.13c.67.11,1.15.3,1.44.57.29.27.43.67.43,1.19,0,.48-.19.88-.57,1.19Z"/>
        <path class="cls-7" d="M97.79,155.45h1.11l1.69,4.62,1.73-4.62h1.06l-2.41,5.86h-.83l-2.35-5.86Z"/>
        <path class="cls-7" d="M106.24,161.31c-.86,0-1.52-.26-1.99-.79-.47-.53-.7-1.26-.7-2.19,0-.66.12-1.22.35-1.67.23-.46.55-.8.95-1.03.4-.24.87-.35,1.39-.35.59,0,1.06.12,1.43.36.37.24.64.57.81.98.18.42.26.9.26,1.43v.48h-4.22c.03.62.19,1.11.48,1.47s.7.54,1.24.54c.48,0,.83-.09,1.05-.27s.37-.42.45-.73h.92c-.09.54-.34.97-.73,1.29-.39.32-.96.48-1.69.48ZM104.76,156.91c-.12.28-.19.58-.22.91h3.23c-.03-.58-.15-1.02-.37-1.34-.22-.31-.61-.47-1.18-.47-.39,0-.7.08-.93.24-.24.16-.41.38-.53.65Z"/>
        <path class="cls-7" d="M109.56,155.45h.95v.87c.29-.37.61-.64.94-.8s.68-.24,1.05-.24c.65,0,1.12.18,1.44.53.31.36.47.87.47,1.54v3.96h-.96v-3.77c0-.53-.1-.9-.29-1.12-.19-.22-.49-.32-.87-.32-.21,0-.42.04-.63.11-.21.07-.4.19-.57.35-.18.16-.32.33-.42.51-.1.18-.14.41-.14.7v3.54h-.96v-5.86Z"/>
        <path class="cls-7" d="M116.86,159.6c0,.28.06.5.19.67s.32.25.57.25c.16,0,.3-.01.43-.04.12-.03.23-.05.33-.08l.17.74c-.15.05-.31.09-.48.13-.17.03-.38.05-.61.05-.43,0-.75-.08-.97-.25-.22-.17-.38-.4-.46-.7-.08-.3-.12-.64-.12-1.02v-3.08h-.88v-.76h.88v-1.55h.96v1.55h1.51v.76h-1.51v3.33Z"/>
        <path class="cls-7" d="M123.7,161.14h-.92v-.78c-.21.25-.47.46-.78.64s-.71.27-1.18.27c-.57,0-1.04-.14-1.4-.42-.36-.28-.54-.71-.54-1.28,0-.39.08-.7.25-.95.17-.24.39-.43.66-.57.28-.14.59-.24.94-.3.35-.06.7-.1,1.06-.11l.98-.03v-.22c0-.48-.1-.83-.31-1.04-.21-.21-.54-.32-1-.32s-.79.08-1,.23c-.21.15-.35.36-.42.62l-.87-.1c.1-.52.35-.9.74-1.14.39-.24.92-.36,1.58-.36.82,0,1.4.19,1.73.57.33.38.5.91.5,1.59v3.7ZM122.76,158.29l-.91.03c-.51.02-.92.07-1.2.17-.29.1-.49.23-.61.41-.12.17-.18.39-.18.64,0,.29.09.51.26.69.17.17.46.26.85.26.54,0,.97-.13,1.3-.4s.5-.65.5-1.17v-.64Z"/>
        <path class="cls-7" d="M128.77,160.81c-.38.32-.95.48-1.72.48-.45,0-.87-.06-1.24-.18s-.68-.31-.91-.58c-.23-.27-.36-.63-.39-1.08h.92c.07.4.23.67.5.83.27.16.63.24,1.09.24s.83-.08,1.03-.25c.2-.17.3-.38.3-.65,0-.23-.06-.42-.19-.58s-.4-.27-.83-.34l-.73-.11c-.64-.1-1.13-.27-1.46-.51-.34-.24-.51-.62-.51-1.15,0-.35.1-.65.3-.9s.47-.44.81-.57.72-.2,1.15-.2c.55,0,.98.07,1.3.21.32.14.55.33.7.56s.26.5.33.78l-.87.14c-.1-.31-.25-.54-.44-.7-.19-.16-.52-.24-.99-.24-.53,0-.89.09-1.08.26s-.29.37-.29.58c0,.23.07.42.21.56.14.14.43.24.87.31l.82.13c.67.11,1.15.3,1.44.57.29.27.43.67.43,1.19,0,.48-.19.88-.57,1.19Z"/>
        <path class="cls-7" d="M135.68,155.43h1.04l1.14,4.52,1.31-4.49h.97l1.28,4.48,1.13-4.51h1.01l-1.72,5.88h-.9l-1.33-4.52-1.34,4.52h-.89l-1.7-5.88Z"/>
        <path class="cls-7" d="M146.55,161.29c-.86,0-1.52-.26-1.99-.79-.46-.53-.7-1.26-.7-2.19,0-.66.12-1.22.35-1.67.23-.46.55-.8.95-1.03.4-.24.87-.35,1.39-.35.59,0,1.06.12,1.43.36.37.24.64.57.81.98.18.42.26.9.26,1.43v.48h-4.22c.03.62.19,1.11.48,1.47.29.36.7.54,1.24.54.48,0,.83-.09,1.05-.27s.37-.42.45-.73h.92c-.1.54-.34.97-.73,1.29-.39.32-.96.48-1.69.48ZM145.07,156.89c-.12.28-.19.58-.22.91h3.23c-.03-.58-.15-1.02-.37-1.34-.22-.31-.61-.47-1.18-.47-.39,0-.7.08-.93.24-.24.16-.41.38-.53.65Z"/>
        <path class="cls-7" d="M150.03,153.24h.96v2.96c.23-.31.51-.55.82-.72.31-.17.67-.25,1.08-.25.54,0,.99.13,1.35.38s.63.6.8,1.05.26.96.26,1.55c0,.62-.1,1.16-.31,1.62-.21.46-.5.81-.87,1.06-.38.25-.83.37-1.35.37-.32,0-.64-.07-.96-.2s-.6-.37-.85-.7v.95h-.95v-8.07ZM154.06,156.91c-.15-.32-.35-.55-.59-.68s-.49-.2-.75-.2c-.49,0-.91.17-1.24.5-.34.33-.51.83-.51,1.5v.39c0,.73.16,1.26.47,1.58.32.32.71.48,1.2.48.31,0,.6-.07.84-.22.25-.15.44-.39.59-.72.15-.33.22-.77.22-1.31s-.08-1-.23-1.31Z"/>
        <path class="cls-7" d="M161.04,161.68c-.14.36-.28.67-.43.92s-.32.45-.53.59c-.21.14-.47.2-.79.2-.18,0-.33-.01-.47-.03-.14-.02-.29-.06-.46-.12l.19-.77c.2.07.4.11.62.11.24,0,.42-.07.54-.2s.26-.39.4-.78l.23-.6-2.41-5.54h1.11l1.79,4.47,1.64-4.47h1.06l-2.49,6.23Z"/>
        <path class="cls-7" d="M167.3,154.93c.31-.62.73-1.08,1.25-1.41.53-.32,1.13-.48,1.79-.48s1.18.11,1.59.32c.41.22.74.52.98.91s.41.84.52,1.34l-.99.16c-.09-.39-.21-.72-.37-1s-.38-.49-.65-.64c-.28-.15-.63-.23-1.07-.23-.52,0-.96.14-1.33.41-.37.27-.65.65-.84,1.14-.19.49-.29,1.05-.29,1.7s.09,1.21.29,1.7c.19.49.47.87.84,1.14s.82.41,1.34.41c.48,0,.87-.08,1.16-.24s.51-.38.67-.67c.15-.29.26-.62.32-.99h1.04c-.06.53-.21,1-.47,1.42s-.61.75-1.06,1-1.01.36-1.68.36c-.72,0-1.34-.16-1.86-.49-.52-.33-.93-.8-1.21-1.41-.29-.61-.43-1.35-.43-2.22s.15-1.63.46-2.24Z"/>
        <path class="cls-7" d="M174.94,153.28h2.57c.59,0,1.07.06,1.45.19.38.13.67.3.88.52.21.22.36.46.44.71.08.26.13.53.13.8,0,.5-.11.92-.32,1.28-.21.35-.55.63-1.02.83l1.72,3.71h-1.13l-1.56-3.46c-.21.02-.41.03-.61.03h-1.55v3.43h-1v-8.03ZM177.62,157.01c.47,0,.83-.06,1.08-.18.25-.12.43-.29.53-.52.1-.22.15-.49.15-.79s-.05-.54-.17-.75c-.11-.21-.3-.36-.57-.47-.27-.11-.66-.17-1.16-.17h-1.54v2.87h1.67Z"/>
        <path class="cls-7" d="M182.08,153.23h1.25l2.53,6.65,2.57-6.65h1.21v8.08h-.94v-6.42s-2.59,6.42-2.59,6.42h-.61l-2.51-6.41v6.41h-.92v-8.08Z"/>
      </g>
      <g>
        <path class="cls-7" d="M0,167.08h2.13c.61,0,1.08.07,1.41.22.33.15.55.34.68.59s.19.53.19.83-.07.56-.2.79c-.13.23-.37.43-.71.58.43.16.72.38.88.66.15.28.23.57.23.88,0,.35-.07.66-.22.95-.15.28-.39.51-.72.67s-.79.25-1.37.25H0v-6.43ZM2.24,169.8c.48,0,.83-.09,1.04-.27.21-.18.32-.44.32-.78s-.11-.6-.34-.76-.61-.23-1.16-.23H.81v2.03h1.43ZM2.27,172.82c.4,0,.7-.05.92-.14.22-.09.37-.23.46-.4.09-.17.13-.38.13-.61,0-.38-.11-.67-.34-.87-.22-.2-.6-.3-1.11-.3H.81v2.32h1.46Z"/>
        <path class="cls-7" d="M5.75,172.85c-.39-.44-.59-1.04-.59-1.8,0-.51.09-.95.28-1.32s.45-.66.79-.86.74-.31,1.2-.31.87.1,1.2.3.59.48.77.85c.18.37.27.8.27,1.31s-.09.95-.27,1.32-.44.66-.78.86-.74.31-1.21.31c-.71,0-1.26-.22-1.65-.66ZM8.23,172.62c.21-.16.36-.37.46-.65s.15-.6.15-.95c0-.53-.11-.97-.34-1.3s-.59-.5-1.09-.5-.86.17-1.08.51c-.23.34-.34.78-.34,1.31s.11.97.33,1.31c.22.34.58.51,1.09.51.34,0,.61-.08.82-.23Z"/>
        <path class="cls-7" d="M11.46,172.11c0,.23.05.41.15.55s.26.21.47.21c.13,0,.25-.01.35-.03.1-.02.19-.04.27-.07l.14.6c-.12.04-.25.08-.39.1-.14.03-.31.04-.5.04-.35,0-.61-.07-.8-.21-.18-.14-.31-.33-.37-.57-.07-.24-.1-.52-.1-.83v-2.52h-.72v-.62h.72v-1.27h.78v1.27h1.23v.62h-1.23v2.73Z"/>
        <path class="cls-7" d="M16.61,173.11c-.31.26-.78.39-1.4.39-.37,0-.71-.05-1.02-.14s-.55-.25-.74-.48c-.19-.22-.3-.52-.32-.88h.76c.05.32.19.55.41.68.22.13.52.19.9.19s.68-.07.84-.2.25-.31.25-.54c0-.19-.05-.35-.15-.48s-.33-.22-.68-.28l-.59-.09c-.52-.08-.92-.22-1.2-.42s-.41-.51-.41-.94c0-.29.08-.53.24-.74s.38-.36.66-.47c.28-.11.59-.16.94-.16.45,0,.8.06,1.06.17s.45.27.58.46.22.41.27.64l-.71.12c-.08-.25-.2-.44-.36-.57-.16-.13-.43-.19-.81-.19-.43,0-.73.07-.89.22-.16.14-.24.3-.24.48,0,.19.06.34.17.46.11.11.35.2.71.26l.67.11c.55.09.94.25,1.17.47.24.22.36.55.36.97,0,.39-.16.71-.47.98Z"/>
        <path class="cls-7" d="M20.83,167.08h.8v.91h-.8v-.91ZM20.84,168.85h.78v4.65h-.78v-4.65Z"/>
        <path class="cls-7" d="M22.67,168.85h.77v.71c.24-.31.5-.52.77-.66s.56-.2.86-.2c.53,0,.92.15,1.17.44.25.29.38.71.38,1.26v3.1h-.78v-2.94c0-.43-.08-.74-.24-.91-.16-.18-.4-.27-.72-.27-.17,0-.34.03-.51.09-.17.06-.33.16-.47.29-.15.13-.26.27-.34.42-.08.15-.12.34-.12.57v2.75h-.78v-4.65Z"/>
        <path class="cls-7" d="M28.52,172.1c0,.23.05.41.15.55s.26.21.47.21c.13,0,.25-.01.35-.03.1-.02.19-.04.27-.07l.14.6c-.12.04-.25.08-.39.1-.14.03-.31.04-.5.04-.35,0-.61-.07-.8-.21-.18-.14-.31-.33-.37-.57-.07-.24-.1-.52-.1-.83v-2.52h-.72v-.62h.72v-1.27h.78v1.27h1.23v.62h-1.23v2.73Z"/>
        <path class="cls-7" d="M32.49,173.5c-.7,0-1.24-.22-1.62-.65s-.57-1.03-.57-1.79c0-.54.09-1,.28-1.37s.45-.65.78-.85c.33-.19.71-.29,1.13-.29.48,0,.87.1,1.17.29.3.2.52.46.67.81s.22.73.22,1.17v.4h-3.46c.02.5.15.9.39,1.2.24.3.57.45,1.01.45.39,0,.68-.07.86-.22.18-.15.3-.35.36-.6h.76c-.08.44-.28.8-.6,1.06-.32.26-.78.39-1.38.39ZM31.29,169.9c-.1.23-.16.47-.18.74h2.65c-.02-.47-.12-.84-.3-1.09-.18-.25-.5-.38-.97-.38-.32,0-.57.07-.77.2-.19.13-.34.31-.43.54Z"/>
        <path class="cls-7" d="M35.6,167.08h.78v6.43h-.78v-6.43Z"/>
        <path class="cls-7" d="M37.69,167.08h.8v.91h-.8v-.91ZM37.71,168.85h.78v4.65h-.78v-4.65Z"/>
        <path class="cls-7" d="M43.53,172.82c0,.53-.06,1-.17,1.39s-.31.69-.61.9c-.3.21-.73.31-1.3.31-.61,0-1.09-.11-1.44-.33s-.55-.58-.61-1.08h.77c.07.28.19.48.38.6s.48.18.89.18c.5,0,.84-.14,1.03-.41.19-.27.28-.67.28-1.19v-.5c-.18.25-.4.44-.65.58-.25.14-.55.21-.9.21-.45,0-.82-.11-1.11-.32s-.51-.49-.65-.85c-.14-.36-.22-.75-.22-1.17,0-.47.08-.89.25-1.24.17-.35.41-.63.72-.83.31-.2.68-.3,1.1-.3.26,0,.51.05.77.15.26.1.49.3.7.58v-.59h.77v3.9ZM41.36,172.83c.48,0,.84-.15,1.07-.45.23-.3.35-.69.35-1.15v-.15c0-.5-.11-.9-.33-1.2-.22-.3-.56-.45-1.03-.45-.38,0-.71.13-.97.4-.26.27-.39.7-.39,1.31,0,.41.06.75.19,1s.29.43.49.54c.2.11.41.16.63.16Z"/>
        <path class="cls-7" d="M46.36,173.5c-.7,0-1.24-.22-1.62-.65s-.57-1.03-.57-1.79c0-.54.09-1,.28-1.37s.45-.65.78-.85c.33-.19.71-.29,1.13-.29.48,0,.87.1,1.17.29.3.2.52.46.67.81s.22.73.22,1.17v.4h-3.46c.02.5.15.9.39,1.2.24.3.57.45,1.01.45.39,0,.68-.07.86-.22.18-.15.3-.35.36-.6h.76c-.08.44-.28.8-.6,1.06-.32.26-.78.39-1.38.39ZM45.15,169.9c-.1.23-.16.47-.18.74h2.65c-.02-.47-.12-.84-.3-1.09-.18-.25-.5-.38-.97-.38-.32,0-.57.07-.77.2-.19.13-.34.31-.43.54Z"/>
        <path class="cls-7" d="M49.08,168.85h.77v.71c.24-.31.5-.52.77-.66s.56-.2.86-.2c.53,0,.92.15,1.17.44.25.29.38.71.38,1.26v3.1h-.78v-2.94c0-.43-.08-.74-.24-.91-.16-.18-.4-.27-.72-.27-.17,0-.34.03-.51.09-.17.06-.33.16-.47.29-.15.13-.26.27-.34.42-.08.15-.12.34-.12.57v2.75h-.78v-4.65Z"/>
        <path class="cls-7" d="M55.11,172.1c0,.23.05.41.15.55s.26.21.47.21c.13,0,.25-.01.35-.03.1-.02.19-.04.27-.07l.14.6c-.12.04-.25.08-.39.1-.14.03-.31.04-.5.04-.35,0-.61-.07-.8-.21-.18-.14-.31-.33-.37-.57-.07-.24-.1-.52-.1-.83v-2.52h-.72v-.62h.72v-1.27h.78v1.27h1.23v.62h-1.23v2.73Z"/>
        <path class="cls-7" d="M59.17,173.5c-.7,0-1.24-.22-1.62-.65s-.57-1.03-.57-1.79c0-.54.09-1,.28-1.37s.45-.65.78-.85c.33-.19.71-.29,1.13-.29.48,0,.87.1,1.17.29.3.2.52.46.67.81s.22.73.22,1.17v.4h-3.46c.02.5.15.9.39,1.2.24.3.57.45,1.01.45.39,0,.68-.07.86-.22.18-.15.3-.35.36-.6h.76c-.08.44-.28.8-.6,1.06-.32.26-.78.39-1.38.39ZM57.97,169.9c-.1.23-.16.47-.18.74h2.65c-.02-.47-.12-.84-.3-1.09-.18-.25-.5-.38-.97-.38-.32,0-.57.07-.77.2-.19.13-.34.31-.43.54Z"/>
        <path class="cls-7" d="M65.33,173.11c-.31.26-.78.39-1.4.39-.37,0-.71-.05-1.02-.14s-.55-.25-.74-.48c-.19-.22-.3-.52-.32-.88h.76c.05.32.19.55.41.68.22.13.52.19.9.19s.68-.07.84-.2.25-.31.25-.54c0-.19-.05-.35-.15-.48s-.33-.22-.68-.28l-.59-.09c-.52-.08-.92-.22-1.2-.42s-.41-.51-.41-.94c0-.29.08-.53.24-.74s.38-.36.66-.47c.28-.11.59-.16.94-.16.45,0,.8.06,1.06.17s.45.27.58.46.22.41.27.64l-.71.12c-.08-.25-.2-.44-.36-.57-.16-.13-.43-.19-.81-.19-.43,0-.73.07-.89.22-.16.14-.24.3-.24.48,0,.19.06.34.17.46.11.11.35.2.71.26l.67.11c.55.09.94.25,1.17.47.24.22.36.55.36.97,0,.39-.16.71-.47.98Z"/>
        <g>
          <path class="cls-7" d="M69.35,168.62h.77v.66c.19-.26.42-.46.67-.59s.55-.21.9-.21c.44,0,.81.1,1.11.31s.51.49.66.86.22.79.22,1.27c0,.51-.08.95-.25,1.33s-.41.66-.72.87-.68.31-1.1.31c-.26,0-.52-.05-.77-.16-.26-.1-.49-.29-.69-.57v2.33h-.78v-6.4ZM72.18,172.59c.2-.12.36-.32.48-.59s.18-.63.18-1.08-.06-.81-.19-1.08c-.13-.26-.29-.45-.48-.56-.19-.11-.4-.17-.62-.17-.46,0-.82.15-1.06.46-.25.31-.37.7-.37,1.18v.31c0,.52.11.93.34,1.24.23.3.57.46,1.03.46.26,0,.49-.06.69-.18Z"/>
          <path class="cls-7" d="M78.06,173.31h-.76v-.64c-.17.2-.38.38-.64.53-.26.15-.58.22-.96.22-.47,0-.85-.12-1.15-.35-.3-.23-.45-.58-.45-1.05,0-.32.07-.58.2-.77.14-.2.32-.35.54-.47.23-.11.48-.19.77-.24.29-.05.57-.08.87-.09l.8-.03v-.18c0-.4-.08-.68-.25-.85s-.44-.26-.82-.26-.65.06-.82.18c-.17.12-.29.29-.34.51l-.71-.08c.08-.43.28-.74.6-.93.32-.19.75-.29,1.3-.29.67,0,1.14.16,1.41.47.27.31.4.75.4,1.3v3.02ZM77.29,170.98l-.75.03c-.42.01-.75.06-.99.14-.24.08-.4.19-.5.33-.1.14-.14.32-.14.53,0,.23.07.42.21.56.14.14.37.21.7.21.44,0,.79-.11,1.06-.32.27-.22.4-.53.4-.95v-.52Z"/>
          <path class="cls-7" d="M79.13,168.69h.77v.72c.17-.26.38-.46.61-.59.23-.14.48-.21.75-.21.17,0,.31.01.41.04l-.1.73c-.06-.01-.12-.02-.18-.03-.06,0-.13-.01-.2-.01-.14,0-.29.03-.44.08s-.29.14-.43.26c-.13.11-.24.25-.31.4s-.11.32-.11.52v2.76h-.78v-4.65Z"/>
          <path class="cls-7" d="M85.87,173.29h-.76v-.64c-.17.2-.38.38-.64.53-.26.15-.58.22-.96.22-.47,0-.85-.12-1.15-.35-.3-.23-.45-.58-.45-1.05,0-.32.07-.58.2-.77.14-.2.32-.35.54-.47.23-.11.48-.19.77-.24.29-.05.57-.08.87-.09l.8-.03v-.18c0-.4-.08-.68-.25-.85s-.44-.26-.82-.26-.65.06-.82.18c-.17.12-.29.29-.34.51l-.71-.08c.08-.43.28-.74.6-.93.32-.19.75-.29,1.3-.29.67,0,1.14.16,1.41.47.27.31.4.75.4,1.3v3.02ZM85.09,170.96l-.75.03c-.42.01-.75.06-.99.14-.24.08-.4.19-.5.33-.1.14-.14.32-.14.53,0,.23.07.42.21.56.14.14.37.21.7.21.44,0,.79-.11,1.06-.32.27-.22.4-.53.4-.95v-.52Z"/>
        </g>
        <g>
          <path class="cls-7" d="M88.69,168.73h.77v.71c.24-.31.5-.52.77-.66s.56-.2.86-.2c.53,0,.92.15,1.17.44.25.29.38.71.38,1.26v3.1h-.78v-2.94c0-.43-.08-.74-.24-.91-.16-.18-.4-.27-.72-.27-.17,0-.34.03-.51.09-.17.06-.33.16-.47.29-.15.13-.26.27-.34.42-.08.15-.12.34-.12.57v2.75h-.78v-4.65Z"/>
          <path class="cls-7" d="M95.68,173.38c-.7,0-1.24-.22-1.62-.65s-.57-1.03-.57-1.79c0-.54.09-1,.28-1.37s.45-.65.78-.85c.33-.19.71-.29,1.13-.29.48,0,.87.1,1.17.29.3.2.52.46.67.81s.22.73.22,1.17v.4h-3.46c.02.5.15.9.39,1.2.24.3.57.45,1.01.45.39,0,.68-.07.86-.22.18-.15.3-.35.36-.6h.76c-.08.44-.28.8-.6,1.06-.32.26-.78.39-1.38.39ZM94.48,169.77c-.1.23-.16.47-.18.74h2.65c-.02-.47-.12-.84-.3-1.09-.18-.25-.5-.38-.97-.38-.32,0-.57.07-.77.2-.19.13-.34.31-.43.54Z"/>
          <path class="cls-7" d="M102.77,172.62c0,.53-.06,1-.17,1.39-.11.39-.32.69-.61.9-.3.21-.73.31-1.3.31-.61,0-1.09-.11-1.44-.33s-.55-.58-.61-1.08h.77c.07.28.19.48.38.6s.48.18.89.18c.5,0,.84-.14,1.03-.41.19-.27.28-.67.28-1.19v-.5c-.18.25-.4.44-.65.58-.25.14-.55.21-.9.21-.45,0-.82-.11-1.11-.32s-.51-.49-.65-.85c-.14-.36-.22-.75-.22-1.17,0-.47.08-.89.25-1.24.17-.35.41-.63.72-.83.31-.2.68-.3,1.1-.3.26,0,.51.05.77.15.25.1.49.3.7.58v-.59h.77v3.9ZM100.59,172.63c.48,0,.84-.15,1.07-.45.23-.3.35-.69.35-1.15v-.15c0-.5-.11-.9-.33-1.2-.22-.3-.56-.45-1.03-.45-.38,0-.71.13-.97.4-.26.27-.39.7-.39,1.31,0,.41.06.75.19,1s.29.43.49.54c.2.11.41.16.63.16Z"/>
          <path class="cls-7" d="M104.15,172.72c-.39-.44-.59-1.04-.59-1.8,0-.51.09-.95.28-1.32.19-.37.45-.66.79-.86.34-.2.74-.31,1.2-.31s.87.1,1.2.3.59.48.77.85c.18.37.27.8.27,1.31s-.09.95-.27,1.32c-.18.37-.44.66-.78.86s-.74.31-1.21.31c-.71,0-1.26-.22-1.65-.66ZM106.63,172.5c.21-.16.37-.37.46-.65s.15-.6.15-.95c0-.53-.11-.97-.34-1.3-.23-.34-.59-.5-1.09-.5s-.86.17-1.08.51c-.22.34-.34.78-.34,1.31s.11.97.33,1.31c.22.34.58.51,1.09.51.34,0,.61-.08.82-.23Z"/>
          <path class="cls-7" d="M109.46,172.71c-.37-.44-.56-1.04-.56-1.79,0-.5.09-.93.27-1.3.18-.37.44-.66.77-.87s.73-.31,1.19-.31c.55,0,.98.14,1.3.41.31.27.51.65.59,1.13l-.78.14c-.06-.3-.17-.55-.33-.74s-.43-.29-.79-.29c-.33,0-.6.08-.8.24s-.35.38-.44.65c-.09.27-.14.58-.14.92s.04.64.13.92c.09.28.23.5.43.66.2.16.47.24.81.24.38,0,.66-.1.84-.29.18-.19.3-.45.36-.78h.79c-.08.53-.28.95-.61,1.26-.33.31-.8.46-1.4.46-.71,0-1.25-.22-1.62-.67Z"/>
          <path class="cls-7" d="M113.87,166.95h.8v.91h-.8v-.91ZM113.88,168.73h.78v4.65h-.78v-4.65Z"/>
          <path class="cls-7" d="M116.17,172.72c-.39-.44-.59-1.04-.59-1.8,0-.51.09-.95.28-1.32.19-.37.45-.66.79-.86.34-.2.74-.31,1.2-.31s.87.1,1.2.3.59.48.77.85c.18.37.27.8.27,1.31s-.09.95-.27,1.32c-.18.37-.44.66-.78.86s-.74.31-1.21.31c-.71,0-1.26-.22-1.65-.66ZM118.65,172.5c.21-.16.37-.37.46-.65s.15-.6.15-.95c0-.53-.11-.97-.34-1.3-.23-.34-.59-.5-1.09-.5s-.86.17-1.08.51c-.22.34-.34.78-.34,1.31s.11.97.33,1.31c.22.34.58.51,1.09.51.34,0,.61-.08.82-.23Z"/>
          <path class="cls-7" d="M124.41,172.99c-.31.26-.78.39-1.4.39-.37,0-.71-.05-1.02-.14s-.55-.25-.74-.48c-.19-.22-.3-.52-.32-.88h.76c.05.32.19.55.41.68s.52.19.9.19.68-.07.84-.2c.16-.13.25-.31.25-.54,0-.19-.05-.35-.15-.48-.1-.13-.33-.22-.67-.28l-.59-.09c-.52-.08-.92-.22-1.2-.42s-.41-.51-.41-.94c0-.29.08-.53.24-.74s.38-.36.66-.47c.28-.11.59-.16.94-.16.45,0,.8.06,1.06.17s.45.27.58.46.22.41.27.64l-.71.12c-.08-.25-.2-.44-.36-.57-.16-.13-.43-.19-.81-.19-.43,0-.73.07-.89.22-.16.14-.24.3-.24.48,0,.19.06.34.17.46s.35.2.71.26l.68.11c.55.09.94.25,1.17.47.24.22.36.55.36.97,0,.39-.16.71-.47.98Z"/>
        </g>
        <g>
          <path class="cls-7" d="M132.26,174.99h-.78v-2.4c-.19.25-.41.45-.67.59-.25.14-.55.21-.88.21-.46,0-.83-.11-1.12-.32-.29-.22-.51-.51-.65-.88-.14-.37-.21-.79-.21-1.24,0-.77.18-1.38.55-1.83.37-.44.87-.67,1.52-.67.25,0,.51.05.76.15.25.1.49.3.71.58v-.59h.77v6.4ZM131.1,172.32c.26-.28.4-.68.4-1.22v-.31c0-.59-.13-1.02-.38-1.28-.25-.27-.58-.4-.99-.4-.25,0-.48.06-.69.18s-.37.31-.49.58c-.12.27-.18.62-.18,1.07s.06.82.19,1.08c.13.26.29.45.49.56.2.11.4.17.62.17.43,0,.77-.14,1.03-.41Z"/>
          <path class="cls-7" d="M136.97,173.24h-.77v-.72c-.22.3-.47.52-.73.66-.27.14-.55.21-.86.21-.53,0-.91-.14-1.15-.43-.24-.29-.36-.71-.36-1.28v-3.09h.78v2.93c0,.43.07.74.22.92.14.18.37.27.68.27.35,0,.67-.13.95-.38.15-.13.26-.27.34-.42.08-.15.12-.34.12-.57v-2.75h.78v4.65Z"/>
          <path class="cls-7" d="M139.95,173.38c-.7,0-1.24-.22-1.62-.65s-.57-1.03-.57-1.79c0-.54.09-1,.28-1.37.19-.37.45-.65.78-.85.33-.19.71-.29,1.13-.29.48,0,.87.1,1.17.29.3.2.52.46.67.81.14.34.22.73.22,1.17v.4h-3.46c.02.5.15.9.39,1.2.24.3.57.45,1.01.45.39,0,.68-.07.86-.22.18-.15.3-.35.36-.6h.76c-.08.44-.28.8-.6,1.06-.32.26-.78.39-1.38.39ZM138.75,169.78c-.1.23-.16.47-.18.74h2.65c-.02-.47-.12-.84-.3-1.09s-.5-.38-.97-.38c-.32,0-.57.07-.76.2-.19.13-.34.31-.43.54Z"/>
        </g>
        <g>
          <path class="cls-7" d="M145.06,168.75h.77v.71c.24-.31.5-.52.77-.66s.56-.2.86-.2c.53,0,.92.15,1.17.44s.38.71.38,1.26v3.1h-.78v-2.94c0-.43-.08-.74-.24-.91-.16-.18-.4-.27-.71-.27-.17,0-.34.03-.51.09-.17.06-.33.16-.47.29-.15.13-.26.27-.34.42-.08.15-.12.34-.12.57v2.75h-.78v-4.65Z"/>
          <path class="cls-7" d="M150.51,172.82c-.39-.44-.59-1.04-.59-1.8,0-.51.09-.95.28-1.32.19-.37.45-.66.79-.86.34-.2.74-.31,1.2-.31s.87.1,1.2.3.59.48.77.85c.18.37.27.8.27,1.31s-.09.95-.27,1.32c-.18.37-.44.66-.78.86s-.74.31-1.21.31c-.71,0-1.26-.22-1.65-.66ZM152.99,172.59c.21-.16.37-.37.46-.65s.15-.6.15-.95c0-.53-.11-.97-.34-1.3-.23-.34-.59-.5-1.09-.5s-.86.17-1.08.51c-.22.34-.34.78-.34,1.31s.11.97.33,1.31c.22.34.58.51,1.09.51.34,0,.61-.08.82-.23Z"/>
        </g>
        <g>
          <path class="cls-7" d="M160.38,173.13c-.31.26-.78.39-1.4.39-.37,0-.71-.05-1.02-.14s-.55-.25-.74-.48c-.19-.22-.3-.52-.32-.88h.76c.05.32.19.55.41.68s.52.19.9.19.68-.07.84-.2c.16-.13.25-.31.25-.54,0-.19-.05-.35-.15-.48-.1-.13-.33-.22-.67-.28l-.59-.09c-.52-.08-.92-.22-1.2-.42s-.41-.51-.41-.94c0-.29.08-.53.24-.74s.38-.36.66-.47c.28-.11.59-.16.94-.16.45,0,.8.06,1.06.17s.45.27.58.46.22.41.27.64l-.71.12c-.08-.25-.2-.44-.36-.57-.16-.13-.43-.19-.81-.19-.43,0-.73.07-.89.22-.16.14-.24.3-.24.48,0,.19.06.34.17.46s.35.2.71.26l.68.11c.55.09.94.25,1.17.47.24.22.36.55.36.97,0,.39-.16.71-.47.98Z"/>
          <path class="cls-7" d="M163.51,173.52c-.7,0-1.24-.22-1.62-.65s-.57-1.03-.57-1.79c0-.54.09-1,.28-1.37.19-.37.45-.65.78-.85.33-.19.71-.29,1.13-.29.48,0,.87.1,1.17.29.3.2.52.46.67.81.14.34.22.73.22,1.17v.4h-3.46c.02.5.15.9.39,1.2.24.3.57.45,1.01.45.39,0,.68-.07.86-.22.18-.15.3-.35.36-.6h.76c-.08.44-.28.8-.6,1.06-.32.26-.78.39-1.38.39ZM162.3,169.92c-.1.23-.16.47-.18.74h2.65c-.02-.47-.12-.84-.3-1.09s-.5-.38-.97-.38c-.32,0-.57.07-.76.2-.19.13-.34.31-.43.54Z"/>
        </g>
        <g>
          <path class="cls-7" d="M172.67,173.27h-.76v-.67c-.19.26-.41.47-.67.61s-.55.21-.89.21c-.45,0-.82-.11-1.12-.32-.29-.22-.51-.51-.65-.88-.14-.37-.21-.79-.21-1.24,0-.77.18-1.38.55-1.82.37-.45.87-.67,1.52-.67.25,0,.5.05.75.15s.49.29.7.56v-2.34h.78v6.43ZM169.38,172.03c.13.26.29.45.49.56.2.11.4.17.62.17.43,0,.77-.14,1.03-.41.26-.28.4-.68.4-1.22v-.31c0-.59-.13-1.02-.38-1.28-.25-.27-.58-.4-.99-.4-.25,0-.48.06-.69.18s-.37.31-.49.58c-.12.27-.18.62-.18,1.07s.06.82.19,1.08Z"/>
          <path class="cls-7" d="M175.69,173.41c-.7,0-1.24-.22-1.62-.65s-.57-1.03-.57-1.79c0-.54.09-1,.28-1.37.19-.37.45-.65.78-.85.33-.19.71-.29,1.13-.29.48,0,.87.1,1.17.29.3.2.52.46.67.81.14.34.22.73.22,1.17v.4h-3.46c.02.5.15.9.39,1.2.24.3.57.45,1.01.45.39,0,.68-.07.86-.22.18-.15.3-.35.36-.6h.76c-.08.44-.28.8-.6,1.06-.32.26-.78.39-1.38.39ZM174.48,169.81c-.1.23-.16.47-.18.74h2.65c-.02-.47-.12-.84-.3-1.09s-.5-.38-.97-.38c-.32,0-.57.07-.76.2-.19.13-.34.31-.43.54Z"/>
          <path class="cls-7" d="M179.56,172.01c0,.23.05.41.15.55.1.14.26.21.47.21.13,0,.25-.01.35-.03.1-.02.19-.04.27-.07l.13.6c-.12.04-.25.08-.39.1-.14.03-.31.04-.5.04-.35,0-.61-.07-.8-.21-.18-.14-.31-.33-.37-.57-.07-.24-.1-.52-.1-.83v-2.52h-.72v-.62h.72v-1.27h.78v1.27h1.23v.62h-1.23v2.73Z"/>
          <path class="cls-7" d="M181.77,166.92h.8v.91h-.8v-.91ZM181.78,168.69h.78v4.65h-.78v-4.65Z"/>
          <path class="cls-7" d="M185.78,173.41c-.7,0-1.24-.22-1.62-.65s-.57-1.03-.57-1.79c0-.54.09-1,.28-1.37.19-.37.45-.65.78-.85.33-.19.71-.29,1.13-.29.48,0,.87.1,1.17.29.3.2.52.46.67.81.14.34.22.73.22,1.17v.4h-3.46c.02.5.15.9.39,1.2.24.3.57.45,1.01.45.39,0,.68-.07.86-.22.18-.15.3-.35.36-.6h.76c-.08.44-.28.8-.6,1.06-.32.26-.78.39-1.38.39ZM184.58,169.81c-.1.23-.16.47-.18.74h2.65c-.02-.47-.12-.84-.3-1.09s-.5-.38-.97-.38c-.32,0-.57.07-.76.2-.19.13-.34.31-.43.54Z"/>
          <path class="cls-7" d="M188.71,168.69h.77v.71c.24-.31.5-.52.77-.66s.56-.2.86-.2c.53,0,.92.15,1.17.44s.38.71.38,1.26v3.1h-.78v-2.94c0-.43-.08-.74-.24-.91-.16-.18-.4-.27-.71-.27-.17,0-.34.03-.51.09-.17.06-.33.16-.47.29-.15.13-.26.27-.34.42-.08.15-.12.34-.12.57v2.75h-.78v-4.65Z"/>
          <path class="cls-7" d="M195.54,173.41c-.7,0-1.24-.22-1.62-.65s-.57-1.03-.57-1.79c0-.54.09-1,.28-1.37.19-.37.45-.65.78-.85.33-.19.71-.29,1.13-.29.48,0,.87.1,1.17.29.3.2.52.46.67.81.14.34.22.73.22,1.17v.4h-3.46c.02.5.15.9.39,1.2.24.3.57.45,1.01.45.39,0,.68-.07.86-.22.18-.15.3-.35.36-.6h.76c-.08.44-.28.8-.6,1.06-.32.26-.78.39-1.38.39ZM194.33,169.81c-.1.23-.16.47-.18.74h2.65c-.02-.47-.12-.84-.3-1.09s-.5-.38-.97-.38c-.32,0-.57.07-.76.2-.19.13-.34.31-.43.54Z"/>
          <path class="cls-7" d="M198.55,168.69h.77v.71c.24-.31.5-.52.77-.66s.56-.2.86-.2c.53,0,.92.15,1.17.44s.38.71.38,1.26v3.1h-.78v-2.94c0-.43-.08-.74-.24-.91-.16-.18-.4-.27-.71-.27-.17,0-.34.03-.51.09-.17.06-.33.16-.47.29-.15.13-.26.27-.34.42-.08.15-.12.34-.12.57v2.75h-.78v-4.65Z"/>
          <path class="cls-7" d="M203.36,172.23h.9v1.05h-.9v-1.05Z"/>
        </g>
      </g>
    </g>
  </g>
</svg>