<?xml version="1.0" encoding="UTF-8"?>
<svg id="Capa_2" data-name="Capa 2" xmlns="http://www.w3.org/2000/svg" xmlns:xlink="http://www.w3.org/1999/xlink" viewBox="0 0 129.69 107.84">
  <defs>
    <style>
      .cls-1, .cls-2 {
        fill: none;
      }

      .cls-3 {
        fill: #17b7b1;
      }

      .cls-2 {
        stroke: #fff;
        stroke-miterlimit: 10;
      }

      .cls-4 {
        fill: #4abc9b;
      }

      .cls-5 {
        fill: #063f76;
      }

      .cls-6 {
        fill: #fff;
      }

      .cls-7 {
        fill: url(#Degradado_sin_nombre_59);
      }

      .cls-8 {
        fill: url(#Degradado_sin_nombre_25);
      }

      .cls-9 {
        fill: #159fa9;
      }
    </style>
    <radialGradient id="Degradado_sin_nombre_59" data-name="Degradado sin nombre 59" cx="65.24" cy="78.93" fx="65.24" fy="78.93" r="51.13" gradientTransform="translate(-1.88 -28.35) rotate(-1.93)" gradientUnits="userSpaceOnUse">
      <stop offset="0" stop-color="#4abc9b"/>
      <stop offset=".28" stop-color="#40bb9f"/>
      <stop offset=".75" stop-color="#27b8a9"/>
      <stop offset="1" stop-color="#17b7b1"/>
    </radialGradient>
    <linearGradient id="Degradado_sin_nombre_25" data-name="Degradado sin nombre 25" x1="29.46" y1="70.89" x2="119.54" y2="70.89" gradientUnits="userSpaceOnUse">
      <stop offset="0" stop-color="#4abc9b"/>
      <stop offset=".28" stop-color="#40bb9f"/>
      <stop offset=".75" stop-color="#27b8a9"/>
      <stop offset="1" stop-color="#17b7b1"/>
    </linearGradient>
  </defs>
  <g id="Capa_1-2" data-name="Capa 1">
    <g>
      <circle class="cls-3" cx="112.82" cy="1.48" r="1.48"/>
      <circle class="cls-9" cx="128.21" cy="13.04" r="1.48"/>
      <circle class="cls-9" cx="121.13" cy="2.65" r="1.78"/>
      <circle class="cls-9" cx="125.87" cy="6.74" r="1.78"/>
      <circle class="cls-3" cx="102.93" cy="2.8" r="2.16"/>
      <path class="cls-7" d="M73.31,71.47c36.88-23.36,45.62-51.35,45.62-51.35l6.15,2.33-4.39-16.42-12.09,11.79,5.67,1.51c-18.48,43.37-65.13,58.74-65.13,58.74,0,0-15.18,7.84-30.94,4.35-14.57-3.23-4.33-20.78-4.33-20.78,0,0-15.99,19.08.85,27.27,0,0,14.23,4.73,33.69-4.16,19.2-8.77,24.46-12.92,24.46-12.92l.44-.35Z"/>
      <path class="cls-1" d="M66.76,99.38c25.02,0,45.31-20.29,45.31-45.31,0,0,0,0,0,0,0,25.02-20.29,45.31-45.31,45.31-10.76,0-20.64-3.76-28.41-10.03,0,0,0,0,0,0,7.77,6.27,17.65,10.03,28.41,10.03Z"/>
      <path class="cls-5" d="M21.16,54.41s0,0,0,0h0c0-25.03,20.29-45.31,45.31-45.31,16.91,0,31.65,9.26,39.44,22.99.09.16.17.32.25.48,1.45-2.39,2.84-4.9,4.16-7.53C100.85,10.93,84.75,1.63,66.47,1.63,37.32,1.63,13.69,25.26,13.69,54.41c0,9.53,2.61,18.93,7.03,26.65,2-.03,4.88.09,8.56-.47-4.97-7.27-8.12-16.71-8.12-26.18Z"/>
      <path class="cls-8" d="M115.18,33.94c-1.61,2.66-3.19,5.82-5.07,8.28,0,0,.21.47.21.47,1.12,3.93,1.74,8.08,1.74,12.37,0,0,0,0,0,0,0,25.02-20.29,45.31-45.31,45.31-10.76,0-20.04-3.29-27.81-9.56-3.16,1.15-7.26,1.16-9.48,1.87,9.48,9.11,23.1,15.15,37.3,15.15,29.15,0,52.78-23.62,52.78-52.77,0-7.1-1.81-14.94-4.36-21.12Z"/>
      <path class="cls-5" d="M44.2,89.42c6.47,4.26,14.22,6.74,22.55,6.74,22.7,0,41.1-18.4,41.1-41.1,0-3.16-.37-6.23-1.05-9.19-23.31,29.36-53.67,40.58-62.61,43.55Z"/>
      <path class="cls-5" d="M103.81,37.67c-6.3-14.61-20.4-23.86-37.32-23.86-22.7,0-41.1,18.4-41.1,41.1,0,10.56,3.98,20.18,10.52,27.46,11.72-2.71,44.69-12.78,67.9-44.7Z"/>
      <path class="cls-2" d="M76.21,58.64c0,1.04-.84,1.88-1.88,1.88s-1.88-.84-1.88-1.88c0-.66.34-1.24.85-1.58.3-.19.65-.31,1.03-.31,1.04,0,1.88.84,1.88,1.88Z"/>
      <path class="cls-2" d="M72.21,86.32c0,1.27-1.03,2.3-2.3,2.3s-2.3-1.03-2.3-2.3c0-.81.41-1.52,1.04-1.93.36-.24.8-.38,1.26-.38,1.27,0,2.3,1.03,2.3,2.3Z"/>
      <path class="cls-2" d="M82.57,84.02c0,1.27-1.03,2.3-2.3,2.3s-2.3-1.03-2.3-2.3c0-.81.41-1.52,1.04-1.93.36-.24.8-.38,1.26-.38,1.27,0,2.3,1.03,2.3,2.3Z"/>
      <path class="cls-2" d="M61.98,84.19c0,1.27-1.03,2.3-2.3,2.3s-2.3-1.03-2.3-2.3c0-.81.41-1.52,1.04-1.93.36-.24.8-.38,1.26-.38,1.27,0,2.3,1.03,2.3,2.3Z"/>
      <path class="cls-2" d="M61.65,24.55c0,1.04-.84,1.88-1.88,1.88s-1.88-.84-1.88-1.88c0-.66.34-1.24.85-1.58.3-.19.65-.31,1.03-.31,1.04,0,1.88.84,1.88,1.88Z"/>
      <path class="cls-2" d="M71.75,22.39c0,1.04-.84,1.88-1.88,1.88s-1.88-.84-1.88-1.88c0-.66.34-1.24.85-1.58.3-.19.65-.31,1.03-.31,1.04,0,1.88.84,1.88,1.88Z"/>
      <path class="cls-2" d="M81.98,24.27c0,1.04-.84,1.88-1.88,1.88s-1.88-.84-1.88-1.88c0-.66.34-1.24.85-1.58.3-.19.65-.31,1.03-.31,1.04,0,1.88.84,1.88,1.88Z"/>
      <polyline class="cls-2" points="73.59 56.87 64.89 48.34 64.89 35.57 59.77 30.32 59.77 26.54"/>
      <line class="cls-2" x1="72.59" y1="33.1" x2="79.44" y2="26.06"/>
      <line class="cls-2" x1="69.87" y1="24.27" x2="69.87" y2="33.1"/>
      <line class="cls-2" x1="69.91" y1="84.02" x2="69.91" y2="81.06"/>
      <line class="cls-2" x1="79.38" y1="82.89" x2="75.37" y2="78.69"/>
      <circle class="cls-4" cx="9.3" cy="56.8" r="1.19"/>
      <circle class="cls-4" cx="6.55" cy="61.1" r="1.19"/>
      <circle class="cls-4" cx="4.18" cy="65.4" r="1.19"/>
      <circle class="cls-4" cx="2.37" cy="69.71" r="1.19"/>
      <circle class="cls-4" cx="1.19" cy="74.69" r="1.19"/>
      <path class="cls-6" d="M55.9,36.3h-5.16l-14.58,32.58h7.67l9.7-21.7,4.19,9.28-5.51-.07-2.72,6.42h11.02l2.58,6.07h4.47l2.65-1.74-14.3-30.84ZM66.63,66.64h-2.08l-2.6-5.79h-9.48l.98-2.21h7.54s-7.54-16.63-7.54-16.63l-10.88,24.63h-3.21l12.59-28.19h2.82l12.77,27.56-.92.63Z"/>
      <polygon class="cls-6" points="80.87 59.24 78.68 60.61 78.68 43.25 67.16 43.25 67.16 36.62 96.4 36.62 96.4 43.04 85.44 43.04 85.44 55.67 83.22 57.27 83.22 40.94 94.53 40.94 94.53 38.66 69.22 38.66 69.22 41.03 80.66 41.03 80.87 59.24"/>
    </g>
  </g>
</svg>